<svg version="1.1" id="Calque_1" xmlns="http://www.w3.org/2000/svg" x="0" y="0" viewBox="0 0 219.1 45.4" style="enable-background:new 0 0 219.1 45.4" xml:space="preserve"><style>.st6{fill:#fff}</style><switch><g><linearGradient id="SVGID_1_" gradientUnits="userSpaceOnUse" x1="22.677" y1="-1.116" x2="22.677" y2="46.761"><stop offset="0" style="stop-color:#008053"/><stop offset=".6" style="stop-color:#7fcbae"/><stop offset="1" style="stop-color:#00a76d"/></linearGradient><path style="fill:url(#SVGID_1_)" d="M0 0h45.4v45.4H0z"/><linearGradient id="SVGID_2_" gradientUnits="userSpaceOnUse" x1="22.606" y1="-11.267" x2="22.606" y2="42.534"><stop offset="0" style="stop-color:#00a76d"/><stop offset=".3" style="stop-color:#7fcbae"/><stop offset=".55" style="stop-color:#00a76d"/><stop offset=".835" style="stop-color:#008053"/><stop offset=".869" style="stop-color:#008558"/><stop offset=".924" style="stop-color:#009264"/><stop offset=".994" style="stop-color:#00a97a"/><stop offset="1" style="stop-color:#00ad7d"/></linearGradient><path d="M44 22.9c0 9.5.4 19.2.4 19.2 0 1.1-.7 1.8-1.6 1.8H3.5c-.9 0-1.5-.8-1.6-1.8 0 0-1.1-8.3-1.1-20.9C.8 8.5 2 2.6 2 2.6c.1-1 .7-1.8 1.6-1.8h39.3c.9 0 1.6.8 1.6 1.8-.1 0-.5 10.9-.5 20.3z" style="fill:url(#SVGID_2_)"/><linearGradient id="SVGID_3_" gradientUnits="userSpaceOnUse" x1="31.224" y1="39.563" x2="31.224" y2="4.747"><stop offset="0" style="stop-color:#00b387"/><stop offset="1" style="stop-color:#00a76d"/></linearGradient><path d="M35.2 12.2c-2.8 1.6-3.7 1.8-6.7 3.6l.1-.3c1.6-1.7 2.3-2.5 3.3-4-2.8.2-6.9.5-9.8 1.1l.2-.3C25 11 29.9 9.7 32.4 9.4c-.6-.9-5.6-3.6-6.8-4.1l.1-.3c3.8.4 8.8 2.2 10.9 3.5.9-.3 1.9-.3 3.6-.5 0 0-.3 1-2.1 2.3.5 1.2-.6 8.1-1.6 9.9 0-2.8-.2-6.4-1.3-8z" style="fill:url(#SVGID_3_)"/><linearGradient id="SVGID_4_" gradientUnits="userSpaceOnUse" x1="9.623" y1="39.565" x2="9.623" y2="4.739"><stop offset="0" style="stop-color:#00b387"/><stop offset="1" style="stop-color:#00a76d"/></linearGradient><path d="m14.7 36.8.1-.3c-1.5-.6-3-1-4.2-2.2.4-1.1.8-1.9 1.5-2.9l.1-.3c-1.3.2-2.4.7-3.5.9-.9-1.5-1.2-3.6-1.7-5.6v.2c-.2 2.3-.3 3.9 0 5.7-.9.3-1.7.3-2.5.6l-.1.3c1.2.7 2.1 1.3 3.5 1.9.7 1.5 1.5 2.6 2.7 3.8l.1-.3c-.2-.9-.5-1.6-.4-2.6 1.5.5 2.7.7 4.4.8z" style="fill:url(#SVGID_4_)"/><linearGradient id="SVGID_5_" gradientUnits="userSpaceOnUse" x1="16.352" y1="39.557" x2="16.352" y2="4.754"><stop offset="0" style="stop-color:#00b387"/><stop offset="1" style="stop-color:#00a76d"/></linearGradient><path d="M18.9 14s-.6 1.1-1.1 2.5h-.1c3.5.5 6.8 1.9 7.6 2.4l-.1.3c-3.6-.6-5.5-.6-6.9-.4-1.3.1-1.6.3-1.6.3-.8 1.7-1.2 4.5-1.4 5.5l-.1.3c-.7-1.6-1.6-4.8-1.6-4.8-1.8 1-6 4.9-6 4.9 2.3-4.6 4.7-6.7 4.7-6.7-.8-.8-2.9-1.2-4.5-1.3l.1-.3c1-.3 3-.4 4.3-.5h2.5c1.3-1.1 3.4-2.1 4.2-2.2z" style="fill:url(#SVGID_5_)"/><linearGradient id="SVGID_6_" gradientUnits="userSpaceOnUse" x1="22.169" y1="39.562" x2="22.169" y2="4.747"><stop offset="0" style="stop-color:#00b387"/><stop offset="1" style="stop-color:#00a76d"/></linearGradient><path d="M23.3 33.9c-.7 1-1.4 1.8-2.2 2.7-1.2.3-2.6.2-3.7.2l-.1.3c.8.4 1.6.7 2.5.9-.7.6-1.6 1.1-2.3 1.6l-.1.3c1.4-.3 3.3-.9 4.7-1.8.7 0 1.4 0 1.9-.1l.1-.3c-.1-.3-.4-.5-.5-1 1.3-1 2.2-1.9 3.3-3l.2-.3c-1.1.7-2.4 1.8-3.6 2.4-.1-.7-.2-1.2-.2-1.9z" style="fill:url(#SVGID_6_)"/><path class="st6" d="M35.4 11.9c-2.8 1.6-3.7 1.8-6.7 3.6 1.8-1.9 2.4-2.7 3.5-4.4-2.8.1-6.9.5-9.8 1.1C24.9 10.8 30 9.3 32.6 9c-.6-.8-5.6-3.4-6.9-4 3.9.3 8.8 1.8 11.1 3.2.9-.3 1.9-.3 3.6-.5-.4.8-.4 1.3-2.1 2.4.5 1.2-.6 8.1-1.6 9.9 0-2.9-.3-6.5-1.3-8.1zM14.9 36.5c-1.6-.6-2.8-1.3-4-2.5.4-1.1.8-1.9 1.5-2.9-1.3.2-2.3.3-3.4.6-1-1.7-1.4-3.3-1.8-5.4-.3 2.3-.3 3.9 0 5.7-1 .3-1.8.5-2.6.9 1.2.7 2.2 1.3 3.5 1.9.7 1.5 1.5 2.6 2.7 3.8-.3-1-.4-1.8-.2-2.9 1.3.5 2.6.7 4.3.8zM19.1 13.7c-.5.7-1.1 1.9-1.2 2.4 4.1.6 7.5 2.7 7.5 2.7-3.6-.6-5.5-.6-6.9-.4-1.3.1-1.6.3-1.6.3-1 2.1-1.6 5.8-1.6 5.8-.7-1.6-1.6-4.8-1.6-4.8-1.8 1-6 4.9-6 4.9 2.3-4.6 4.7-6.7 4.7-6.7-.8-.8-2.9-1.2-4.5-1.3.8-.3 2.9-.7 4.5-.8h2.5c1.3-1 3.4-2 4.2-2.1zM23.5 33.6c-.7 1-1.4 1.8-2.2 2.7-1.4.4-2.5.5-3.9.5.8.4 1.6.7 2.5.9-.9.8-1.6 1.3-2.5 1.9 1.4-.3 3.3-.9 4.7-1.8.7 0 1.4 0 1.9-.1-.1-.4-.2-.7-.3-1.3 1.3-1 2.3-1.9 3.3-3-1.2.8-2.2 1.4-3.5 2v-1.8z"/><path d="M62.4 16.6c3.1 0 4.2.6 4.2 2.3 0 .5-.1.9-.4 1.2-.6.7-1.7 1.1-3.2 1h-.1l-.9 2.2h.9c1.7 0 3.2.5 3.9 1.4.3.4.5.9.5 1.4 0 1.7-1.5 2.6-4.5 2.6H61c-.1-2.3-.1-5.5-.1-6.4 0-1.1.1-3.5.1-5.6.3-.1.9-.1 1.4-.1zM56.8 15c.1 1.6.2 5.8.2 7.3 0 1.4 0 6.1-.2 8.1v.2H64c3.6 0 7.4-1.1 7.4-4.3 0-2-1.5-3.5-4.2-4.3 2-.5 3.4-1.9 3.4-3.5 0-2.6-3-3.6-5.8-3.7h-8.1l.1.2M88.3 14.8h-3.6l.1 4c.1 2 .1 4 .3 5.9-.2-.6-.4-.9-1.5-2.5 0-.1-3.7-5.8-5-7.4h-4.1v.2c.1 1.6.2 5.8.2 7.3 0 1.4 0 6.1-.2 8.1v.2h3.7v-.2c-.2-3.8-.2-7.7-.2-11.5.1.5.3.8.9 1.7 0 .1 6.4 9.3 6.7 9.9v.1h3v-.2c-.2-2-.2-6.7-.2-8.1 0-1.5.1-5.7.2-7.3v-.1h-.3zM98 16.7c2.1 0 3.5.4 4.2 1.2.3.4.5.9.5 1.4 0 2.3-2.6 2.8-4.7 2.8h-1.3v-5.3c.3 0 .8-.1 1.3-.1zM92.6 15c.1 1.6.2 5.8.2 7.3 0 1.4 0 6.1-.2 8.1v.2H97v-.2c-.1-1.5-.2-4.2-.2-6.3h1.4c5.8 0 8.6-1.5 8.6-4.7 0-3.7-3.9-4.5-7.2-4.6h-6.9v.2M120.5 16.7c2.1 0 3.5.4 4.2 1.2.3.4.5.9.5 1.4 0 2.3-2.6 2.8-4.7 2.8h-1.3v-5.3c.3 0 .8-.1 1.3-.1zm-5.4-1.7c.1 1.6.2 5.8.2 7.3 0 1.4 0 6.1-.2 8.1v.2h4.4v-.2c-.1-1.5-.2-4.2-.2-6.3h1.4c5.8 0 8.6-1.5 8.6-4.7 0-3.7-4-4.5-7.3-4.6h-6.9v.2M136.2 19.5c.3.8 1.3 2.8 2.3 5.3h-4.6c.8-2 1.6-3.8 2.3-5.3zm-1.1-4.7c-.9 2.3-6.2 13.8-7 15.6l-.1.2h3.7v-.1c.3-1.1.8-2.3 1.3-3.6h6.2c.7 1.7 1.2 3 1.4 3.6v.1h4.3l-7-15.8h.1-2.9M146.8 15c.1 1.6.2 5.8.2 7.3 0 1.4 0 6.1-.2 8.1v.2h4.4v-.2c-.2-2-.3-6.7-.3-8.1 0-1.1 0-3.5.1-5.5.3 0 .8-.1 1.2-.1 2 0 3.5.4 4.2 1.2.3.4.5.9.5 1.4 0 1.8-1.7 2.7-3.3 2.8h-.9l-.3-.1.2.3c1.6 2.3 3.9 6.2 4.9 8.1v.1h4.7l-.1-.2c-.2-.3-3.3-4.8-4.6-6.7l-.1-.1c2.4-.7 3.6-2.1 3.6-4.1 0-3.6-3.9-4.5-7.3-4.6h-6.9v.2zM168.4 14.8h-4.2v.1c.1 1.6.2 5.8.2 7.3 0 1.4 0 6.1-.2 8.1v.2h4.4v-.2c-.2-2-.2-6.7-.2-8.1 0-1.5.1-5.7.2-7.3v-.1h-.2zM178.1 16.6c3.1 0 4.2.6 4.2 2.3 0 .5-.1.9-.4 1.2-.6.7-1.7 1.1-3.2 1h-.1l-.8 2.2h.8c1.7 0 3.1.5 3.9 1.4.4.4.5.9.5 1.4 0 1.7-1.5 2.6-4.6 2.6h-1.8c-.1-2.3-.1-5.5-.1-6.4 0-1.1 0-3.5.1-5.6.4-.1 1-.1 1.5-.1zm-5.6-1.6c.1 1.6.2 5.8.2 7.3 0 1.4 0 6.1-.2 8.1v.2h7.3c3.6 0 7.4-1.1 7.4-4.3 0-2-1.5-3.5-4.2-4.3 2-.5 3.4-1.9 3.4-3.5 0-2.6-3-3.6-5.8-3.7h-8.1v.2M196.1 19.4c.4.7 1.3 2.8 2.3 5.3h-4.5c.7-1.9 1.5-3.7 2.2-5.3zm1.8-4.6H195v.1c-.9 2.4-6.4 14.5-6.9 15.5l-.1.2h3.8v-.1c.3-1.1.7-2.3 1.2-3.6h6.2c.7 1.7 1.2 3 1.4 3.6v.1h4.3l-7-15.8M206.3 18.9c0 2.8 2.8 3.9 5.2 4.9 1.9.8 3.9 1.6 3.9 2.9 0 .4-.1.7-.3 1-.5.5-1.4.8-2.9.7-1.5-.1-3.1-.5-5-1.4l-.7-.4V30l.5.1h.3c.9.2 2.7.6 4.4.6 4.6 0 7.4-1.8 7.4-4.9 0-2.9-2.8-4-5.4-5-1.9-.8-3.8-1.5-3.8-2.7 0-.4 0-1.4 2.4-1.4 1.8 0 3.5.7 4.5 1.1l.9.4v-3.5l-.9-.2c-.9-.2-2.4-.5-3.9-.5-4 .2-6.6 2.1-6.6 4.9z"/></g></switch></svg>